<svg width="30" height="34" viewBox="0 0 30 34" fill="none" xmlns="http://www.w3.org/2000/svg">
<path d="M30 23.8914C30 29.8272 26.745 33.3659 21.285 33.3659H19.5C18.675 33.3659 18 32.632 18 31.7351V22.3259C18 21.8856 18.33 21.5105 18.735 21.5105L21.375 21.4616C21.585 21.4453 21.765 21.2822 21.81 21.0539L22.335 17.9393C22.38 17.6457 22.17 17.3685 21.885 17.3685L18.69 17.4174C18.27 17.4174 17.94 17.0587 17.925 16.6184L17.865 12.6231C17.865 12.3622 18.06 12.1339 18.315 12.1339L21.915 12.0687C22.17 12.0687 22.365 11.8567 22.365 11.5795L22.305 7.6657C22.305 7.38848 22.11 7.1765 21.855 7.1765L17.805 7.24175C15.315 7.29067 13.335 9.50843 13.38 12.2154L13.455 16.6999C13.47 17.1565 13.14 17.5153 12.72 17.5316L10.92 17.5642C10.665 17.5642 10.47 17.7762 10.47 18.0534L10.515 21.1518C10.515 21.429 10.71 21.641 10.965 21.641L12.765 21.6084C13.185 21.6084 13.515 21.9671 13.53 22.4074L13.665 31.7025C13.68 32.6157 13.005 33.3659 12.165 33.3659H8.715C3.255 33.3659 0 29.8272 0 23.8751V10.2259C0 4.29013 3.255 0.751465 8.715 0.751465H21.285C26.745 0.751465 30 4.29013 30 10.2259V23.8914Z" fill="black"/>
</svg>
