<svg width="30" height="41" viewBox="0 0 30 41" fill="none" xmlns="http://www.w3.org/2000/svg">
<path d="M16.5526 3.49683C18.9704 0.0169649 22.3319 0 22.3319 0C22.3319 0 22.8319 3.27167 20.4298 6.42332C17.8651 9.7886 14.9499 9.23793 14.9499 9.23793C14.9499 9.23793 14.4025 6.59126 16.5526 3.49683ZM15.2574 11.5297C16.5013 11.5297 18.8098 9.66265 21.8148 9.66265C26.9872 9.66265 29.0221 13.6816 29.0221 13.6816C29.0221 13.6816 25.0423 15.9035 25.0423 21.2948C25.0423 27.3767 30 29.4727 30 29.4727C30 29.4727 26.5344 40.1241 21.8533 40.1241C19.7033 40.1241 18.0317 38.542 15.7664 38.542C13.4578 38.542 11.1669 40.1831 9.6748 40.1831C5.40025 40.1832 0 30.0792 0 21.9573C0 13.9665 4.57096 9.7746 8.85833 9.7746C11.6455 9.7746 13.8084 11.5297 15.2574 11.5297Z" fill="white"/>
</svg>
