<svg width="120" height="127" viewBox="0 0 120 127" fill="none" xmlns="http://www.w3.org/2000/svg">
<path d="M119.627 91.4793C119.627 99.2515 113.325 105.553 105.553 105.553H14.0737C6.30152 105.553 0 99.2515 0 91.4793V22.2119C0 14.4397 20.3753 0 28.1475 0H100.715C111.601 0 119.627 8.13462 119.627 18.9116V91.4793Z" fill="#F4900C"/>
<path d="M112.59 105.553C112.59 113.325 106.288 119.627 98.5162 119.627H21.1106C13.3384 119.627 7.03687 113.325 7.03687 105.553V21.1106C7.03687 6.61819 6.96298 7.03689 24.629 7.03689H98.5162C106.288 7.03689 112.59 13.3384 112.59 21.1106V105.553Z" fill="#CCD6DD"/>
<path d="M105.553 109.072C105.553 114.902 100.828 119.627 94.9978 119.627H10.5553C4.72526 119.627 0 114.902 0 109.072V24.6291C0 18.799 4.72526 14.0737 10.5553 14.0737H94.9978C100.828 14.0737 105.553 18.799 105.553 24.6291V109.072Z" fill="#E1E8ED"/>
<path d="M105.553 112.59C105.553 120.362 99.2515 126.664 91.4793 126.664H17.5922C9.81995 126.664 3.51843 120.362 3.51843 112.59V35.1844C3.51843 27.4121 9.81995 21.1106 17.5922 21.1106H91.4793C99.2515 21.1106 105.553 27.4121 105.553 35.1844V112.59Z" fill="#F4900C"/>
<path d="M98.5162 112.59C98.5162 120.362 92.2147 126.664 84.4424 126.664H17.5922C9.81995 126.664 3.51843 120.362 3.51843 112.59V42.2212C3.51843 34.449 9.81995 28.1475 17.5922 28.1475H85.6211C93.3933 28.1475 98.5162 33.2703 98.5162 41.0425V112.59Z" fill="#FFAC33"/>
<path d="M17.5922 21.1106C11.6531 21.1106 11.5018 14.3482 14.0737 11.4349C17.0011 8.12407 21.5504 7.03687 29.6886 7.03687H35.1844V0H25.6177C11.6531 0 0 8.79609 0 18.9116V112.59C0 120.362 6.30152 126.664 14.0737 126.664H21.1106V21.1106H17.5922Z" fill="#F4900C"/>
</svg>
