<svg width="120" height="67" viewBox="0 0 120 67" fill="none" xmlns="http://www.w3.org/2000/svg">
<path d="M22.0574 0.737578C25.0382 -2.24316 33.5829 4.51317 37.5573 8.48749C41.5316 12.4618 39.5444 19.2181 37.1598 16.6348C34.1791 13.2567 26.6279 2.72474 23.8459 3.91703C21.0639 5.10932 13.7114 15.84 5.76275 31.7372L0 33.7244C0.198716 33.7244 9.14092 13.6541 22.0574 0.737578ZM97.5694 0.737578C94.5886 -2.24316 86.0439 4.51317 82.0696 8.48749C78.0952 12.4618 80.0824 19.2181 82.467 16.6348C85.4477 13.2567 92.9989 2.72474 95.7809 3.91703C98.563 5.10932 105.915 15.84 113.864 31.7372L119.627 33.7244C119.428 33.7244 110.486 13.6541 97.5694 0.737578Z" fill="#3E4347"/>
<path d="M115.255 31.3398C113.268 31.1411 106.71 30.7437 98.9603 30.7437C90.0181 30.7437 82.8644 31.9359 75.9093 33.1282C68.9543 34.3205 64.3838 35.1154 59.8134 35.1154C55.2429 35.1154 50.6724 34.3205 43.7174 33.1282C36.7623 31.9359 29.6086 30.7437 20.6664 30.7437C12.9165 30.7437 6.35885 31.1411 4.3717 31.3398C0.198669 31.9359 0.198669 31.9359 0.198669 36.3077C0.198669 42.8653 0.993532 44.0576 1.19225 44.455C1.58968 45.0512 2.78197 45.6473 3.1794 46.2435C3.77555 47.0383 3.97427 49.6216 4.17298 51.0126C6.35885 62.5382 9.5383 66.5125 26.8266 66.5125C43.1212 66.5125 51.0699 61.7433 54.2493 50.0191C54.448 49.2242 54.8455 45.4486 55.0442 44.455C55.0442 44.0576 55.4416 43.6602 56.2365 43.4614C57.4288 43.2627 58.4224 43.2627 59.4159 43.2627C60.4095 43.2627 61.4031 43.2627 62.5954 43.4614C63.3902 43.6602 63.7877 44.0576 63.7877 44.455C63.9864 45.2499 64.3838 49.0255 64.5825 50.0191C67.5633 61.7433 75.7106 66.5125 92.0053 66.5125C109.492 66.5125 112.473 62.5382 114.659 51.0126C114.858 49.6216 115.056 47.0383 115.652 46.2435C116.05 45.6473 117.242 45.0512 117.64 44.455C118.037 44.0576 118.633 42.8653 118.633 36.3077C119.428 31.9359 119.428 31.9359 115.255 31.3398ZM51.4673 45.6473C51.2686 46.6409 51.0699 47.6345 50.6724 49.0255C48.4866 57.1728 43.7174 62.5382 27.224 62.5382C11.3267 62.5382 9.93574 59.16 8.34601 50.0191C7.74986 46.6409 6.55757 42.8653 7.94858 39.4871C8.74344 37.6987 9.93574 35.1154 14.7049 35.1154C18.0831 35.1154 34.7752 35.3141 45.1084 37.5C47.8904 38.4936 52.8583 39.4871 51.4673 45.6473ZM111.281 50.2178C109.691 59.3587 108.3 62.7369 92.4027 62.7369C75.9093 62.7369 71.1401 57.3715 68.9543 49.2242C68.5568 47.8332 68.3581 46.6409 68.1594 45.846C66.9671 39.8846 71.7363 38.6923 74.717 38.0961C85.0502 35.9103 101.742 35.7115 105.121 35.7115C109.691 35.7115 111.082 38.2948 111.877 40.0833C113.069 42.8653 111.877 46.6409 111.281 50.2178Z" fill="#3E4347"/>
</svg>
