<svg width="30" height="36" viewBox="0 0 30 36" fill="none" xmlns="http://www.w3.org/2000/svg">
<path d="M0 2.15556V32.9669C0.000189873 33.0338 0.0185293 33.0991 0.0527188 33.1547C0.0869082 33.2102 0.135426 33.2536 0.192187 33.2793C0.248949 33.305 0.311427 33.3119 0.371789 33.2992C0.43215 33.2864 0.487707 33.2546 0.531494 33.2076L15.2886 17.562L0.531494 1.91488C0.487707 1.86794 0.43215 1.83611 0.371789 1.82336C0.311427 1.81062 0.248949 1.81753 0.192187 1.84324C0.135426 1.86894 0.0869082 1.9123 0.0527188 1.96786C0.0185293 2.02342 0.000189873 2.08872 0 2.15556Z" fill="white"/>
<path d="M21.4761 11.1331L2.97264 0.0504101L2.9611 0.043354C2.64235 -0.144807 2.33946 0.324028 2.60052 0.596861L17.1052 15.6748L21.4761 11.1331Z" fill="white"/>
<path d="M2.60191 34.5271C2.33941 34.7999 2.6423 35.2687 2.96249 35.0806L2.97403 35.0735L21.4761 23.9908L17.1051 19.4475L2.60191 34.5271Z" fill="white"/>
<path d="M28.9458 15.602L23.7787 12.5083L18.9203 17.562L23.7787 22.6133L28.9458 19.522C30.3514 18.6776 30.3514 16.4464 28.9458 15.602Z" fill="white"/>
</svg>
