<svg width="30" height="30" viewBox="0 0 30 30" fill="none" xmlns="http://www.w3.org/2000/svg">
<path d="M25.932 4.16063C25.4439 3.67248 24.6524 3.67248 24.1643 4.16063L15.0463 13.2786L5.92832 4.16064C5.44016 3.67248 4.64871 3.67248 4.16055 4.16064C3.6724 4.64879 3.67239 5.44025 4.16055 5.9284L13.2785 15.0464L4.16058 24.1643C3.67242 24.6525 3.67242 25.4439 4.16058 25.9321C4.64873 26.4202 5.44019 26.4202 5.92834 25.9321L15.0463 16.8141L24.1642 25.9321C24.6524 26.4202 25.4438 26.4202 25.932 25.9321C26.4201 25.4439 26.4201 24.6525 25.932 24.1643L16.8141 15.0464L25.932 5.9284C26.4202 5.44025 26.4202 4.64879 25.932 4.16063Z" fill="#0F0F0F" fill-opacity="0.6"/>
</svg>
