<svg width="30" height="34" viewBox="0 0 30 34" fill="none" xmlns="http://www.w3.org/2000/svg">
<path d="M15 13.1755C14.2936 13.1758 13.6032 13.4038 13.0159 13.8307C12.4287 14.2575 11.9711 14.8641 11.701 15.5737C11.4308 16.2832 11.3603 17.064 11.4983 17.8171C11.6362 18.5703 11.9765 19.2621 12.4761 19.805C12.9757 20.3479 13.6122 20.7176 14.305 20.8673C14.9978 21.017 15.7159 20.94 16.3685 20.6461C17.0211 20.3521 17.5789 19.8544 17.9713 19.2159C18.3638 18.5773 18.5732 17.8266 18.5732 17.0587C18.5725 16.0288 18.1958 15.0413 17.5258 14.3132C16.8558 13.5851 15.9473 13.1759 15 13.1755ZM23.3511 10.1907C23.1693 9.68973 22.8947 9.23472 22.5444 8.85389C22.1941 8.47306 21.7756 8.17455 21.3147 7.97687C19.9085 7.37335 16.5603 7.50876 15 7.50876C13.4397 7.50876 10.0949 7.36826 8.6846 7.97687C8.22378 8.17455 7.80524 8.47306 7.45494 8.85389C7.10464 9.23472 6.83005 9.68973 6.64821 10.1907C6.09375 11.7195 6.21763 15.3632 6.21763 17.0579C6.21763 18.7527 6.09375 22.392 6.65089 23.9259C6.83273 24.4269 7.10732 24.8819 7.45761 25.2627C7.80791 25.6435 8.22646 25.9421 8.68728 26.1397C10.0935 26.7432 13.4417 26.6078 15.0027 26.6078C16.5636 26.6078 19.9071 26.7483 21.3174 26.1397C21.7782 25.9421 22.1968 25.6435 22.5471 25.2627C22.8974 24.8819 23.172 24.4269 23.3538 23.9259C23.9129 22.3971 23.7844 18.7535 23.7844 17.0587C23.7844 15.3639 23.9129 11.7253 23.3538 10.1914L23.3511 10.1907ZM15 23.0283C13.914 23.0283 12.8523 22.6782 11.9493 22.0222C11.0463 21.3663 10.3425 20.4339 9.92691 19.3431C9.5113 18.2523 9.40256 17.052 9.61444 15.8941C9.82631 14.7361 10.3493 13.6724 11.1172 12.8375C11.8852 12.0027 12.8636 11.4341 13.9287 11.2038C14.9939 10.9734 16.098 11.0916 17.1013 11.5435C18.1047 11.9953 18.9623 12.7604 19.5657 13.7421C20.169 14.7238 20.4911 15.878 20.4911 17.0587C20.492 17.8429 20.3505 18.6196 20.0749 19.3443C19.7992 20.069 19.3948 20.7274 18.8847 21.2819C18.3747 21.8365 17.769 22.2761 17.1024 22.5758C16.4358 22.8755 15.7213 23.0292 15 23.0283ZM20.7174 12.232C20.4639 12.2322 20.216 12.1506 20.0052 11.9976C19.7943 11.8445 19.6299 11.627 19.5328 11.3724C19.4357 11.1178 19.4102 10.8376 19.4596 10.5672C19.509 10.2969 19.631 10.0486 19.8102 9.85361C19.9894 9.65867 20.2178 9.52589 20.4664 9.47207C20.7151 9.41824 20.9728 9.4458 21.2071 9.55124C21.4413 9.65668 21.6415 9.83527 21.7824 10.0644C21.9233 10.2936 21.9984 10.563 21.9984 10.8386C21.9991 11.0217 21.9666 11.203 21.9027 11.3724C21.8388 11.5417 21.7447 11.6956 21.626 11.8254C21.5072 11.9551 21.366 12.058 21.2106 12.1283C21.0551 12.1986 20.8884 12.2348 20.7201 12.2349L20.7174 12.232ZM26.7857 0.751465H3.21429C2.3618 0.751465 1.54424 1.11962 0.941442 1.77495C0.338647 2.43028 0 3.31909 0 4.24586L0 29.8715C0 30.7982 0.338647 31.6871 0.941442 32.3424C1.54424 32.9977 2.3618 33.3659 3.21429 33.3659H26.7857C27.6382 33.3659 28.4558 32.9977 29.0586 32.3424C29.6614 31.6871 30 30.7982 30 29.8715V4.24586C30 3.31909 29.6614 2.43028 29.0586 1.77495C28.4558 1.11962 27.6382 0.751465 26.7857 0.751465ZM25.6393 21.8635C25.5529 23.7293 25.1612 25.3826 23.9083 26.7411C22.6554 28.0995 21.1359 28.5341 19.4217 28.6229C17.6531 28.7314 12.3509 28.7314 10.5824 28.6229C8.86607 28.529 7.35067 28.1024 6.09576 26.7411C4.84085 25.3797 4.44643 23.7257 4.36473 21.8635C4.26496 19.9401 4.26496 14.1751 4.36473 12.2539C4.45112 10.388 4.83817 8.73471 6.09576 7.37627C7.35335 6.01782 8.87277 5.5883 10.5824 5.49948C12.3509 5.39101 17.6531 5.39101 19.4217 5.49948C21.1379 5.59339 22.658 6.02 23.9083 7.38136C25.1585 8.74272 25.5576 10.3967 25.6393 12.2626C25.7391 14.1787 25.7391 19.9386 25.6393 21.8635Z" fill="black"/>
</svg>
