<svg width="30" height="34" viewBox="0 0 30 34" fill="none" xmlns="http://www.w3.org/2000/svg">
<path d="M27.7779 0.664307H2.21458C0.992084 0.664307 0 1.71748 0 3.01436V30.9255C0 32.2242 0.992084 33.2787 2.21458 33.2787H27.7779C29.0012 33.2787 30 32.2242 30 30.9255V3.01436C30 1.71748 29.0012 0.664307 27.7779 0.664307ZM8.8975 28.4563H4.44583V12.8924H8.8975V28.4563ZM6.67167 10.7644C5.24542 10.7644 4.0925 9.50779 4.0925 7.95861C4.0925 6.41169 5.24542 5.15513 6.67167 5.15513C8.09458 5.15513 9.25042 6.41169 9.25042 7.95861C9.25042 9.50779 8.09458 10.7644 6.67167 10.7644ZM25.5625 28.4563H21.1179V20.888C21.1179 19.0824 21.0854 16.7609 18.805 16.7609C16.4892 16.7609 16.1362 18.7272 16.1362 20.757V28.4568H11.6883V12.8924H15.9571V15.0178H16.0179C16.6121 13.7948 18.0637 12.5042 20.2288 12.5042C24.7312 12.5042 25.5629 15.7267 25.5629 19.919L25.5625 28.4563Z" fill="black"/>
</svg>
