<svg width="120" height="120" viewBox="0 0 120 120" fill="none" xmlns="http://www.w3.org/2000/svg">
<path d="M3.73834 7.47668V33.645C3.73834 35.7049 5.41499 37.3834 7.47668 37.3834H11.215V3.73834H7.47668C5.41499 3.73834 3.73834 5.41124 3.73834 7.47668Z" fill="#45AAB8"/>
<path d="M26.1683 112.15C26.1683 114.21 27.845 115.888 29.9067 115.888H89.7201C91.7818 115.888 93.4584 114.21 93.4584 112.15V108.412H26.1683V112.15Z" fill="#45AAB8"/>
<path d="M81.3593 5.57386C77.3182 13.3608 69.1966 18.6917 59.8134 18.6917C50.4321 18.6917 42.3143 13.3646 38.2694 5.5776C37.9572 4.97572 37.3834 3.73833 35.5404 3.73833H14.9534V37.3834H22.43C24.4936 37.3834 26.1684 39.0563 26.1684 41.1217V104.673H93.4585V41.1217C93.4585 39.0563 95.1332 37.3834 97.1968 37.3834H104.673V3.73833H84.0864C82.2434 3.73833 81.6696 4.97572 81.3593 5.57386Z" fill="#45AAB8"/>
<path d="M112.15 3.73833H108.412V37.3834H112.15C114.212 37.3834 115.888 35.7049 115.888 33.645V7.47667C115.888 5.41124 114.212 3.73833 112.15 3.73833Z" fill="#45AAB8"/>
<path d="M112.15 0H83.1799C79.4415 0 78.7032 2.58506 78.0864 3.78133C74.677 10.4113 67.7835 14.9534 59.8134 14.9534C51.8302 14.9534 44.9199 10.3944 41.5198 3.74581C40.9124 2.55515 40.1124 0 36.4507 0H7.47668C3.34394 0 0 3.3402 0 7.47668V33.645C0 37.7778 3.34394 41.1217 7.47668 41.1217H22.43V112.15C22.43 116.283 25.774 119.627 29.9067 119.627H89.7201C93.8528 119.627 97.1968 116.283 97.1968 112.15V41.1217H112.15C116.283 41.1217 119.627 37.7778 119.627 33.645V7.47668C119.627 3.3402 116.283 0 112.15 0ZM11.215 37.3834H7.47668C5.41498 37.3834 3.73834 35.7049 3.73834 33.645V7.47668C3.73834 5.41124 5.41498 3.73834 7.47668 3.73834H11.215V37.3834ZM93.4584 112.15C93.4584 114.21 91.7818 115.888 89.7201 115.888H29.9067C27.845 115.888 26.1684 114.21 26.1684 112.15V108.412H93.4584V112.15ZM104.673 37.3834H97.1968C95.1332 37.3834 93.4584 39.0563 93.4584 41.1217V104.673H26.1684V41.1217C26.1684 39.0563 24.4936 37.3834 22.43 37.3834H14.9534V3.73834H35.5404C37.3834 3.73834 37.9572 4.97573 38.2694 5.5776C42.3142 13.3646 50.432 18.6917 59.8134 18.6917C69.1966 18.6917 77.3182 13.3608 81.3593 5.57386C81.6696 4.97573 82.2434 3.73834 84.0864 3.73834H104.673V37.3834ZM115.888 33.645C115.888 35.7049 114.212 37.3834 112.15 37.3834H108.412V3.73834H112.15C114.212 3.73834 115.888 5.41124 115.888 7.47668V33.645Z" fill="#394240"/>
<path d="M67.2901 37.3834C65.2265 37.3834 63.3573 38.2189 62.0041 39.5703L59.8134 41.7498L57.6227 39.5703C56.2695 38.2189 54.4003 37.3834 52.3367 37.3834C48.2077 37.3834 44.86 40.7273 44.86 44.8601C44.86 46.9236 46.1928 48.8507 47.5479 50.2003L58.4919 61.148C59.2227 61.8788 60.4041 61.8788 61.1349 61.148L72.0508 50.232C73.4041 48.8788 74.7667 46.9236 74.7667 44.8601C74.7667 40.7273 71.4191 37.3834 67.2901 37.3834ZM69.4508 47.5442L59.8134 57.1816L50.176 47.5442C49.4975 46.8675 48.5984 45.89 48.5984 44.8601C48.5984 42.7946 50.2732 41.1217 52.3367 41.1217C53.3704 41.1217 54.305 41.5385 54.9797 42.217L58.4919 45.7105C59.2227 46.4414 60.4041 46.4414 61.1349 45.7105L64.6471 42.217C65.3218 41.5385 66.2564 41.1217 67.2901 41.1217C69.3536 41.1217 71.0284 42.7946 71.0284 44.8601C71.0284 45.89 70.1293 46.8675 69.4508 47.5442Z" fill="#394240"/>
<path d="M69.4508 47.5442L59.8134 57.1816L50.176 47.5442C49.4975 46.8675 48.5984 45.89 48.5984 44.8601C48.5984 42.7946 50.2732 41.1217 52.3367 41.1217C53.3704 41.1217 54.305 41.5385 54.9797 42.217L58.4919 45.7105C59.2227 46.4414 60.4041 46.4414 61.1349 45.7105L64.6471 42.217C65.3218 41.5385 66.2564 41.1217 67.2901 41.1217C69.3536 41.1217 71.0284 42.7946 71.0284 44.8601C71.0284 45.89 70.1293 46.8675 69.4508 47.5442Z" fill="#F9EBB2"/>
<path d="M3.73834 7.47668V33.645C3.73834 35.7049 5.41499 37.3834 7.47668 37.3834H11.215V3.73834H7.47668C5.41499 3.73834 3.73834 5.41124 3.73834 7.47668Z" fill="#506C7F"/>
<path d="M26.1683 112.15C26.1683 114.21 27.845 115.888 29.9067 115.888H89.7201C91.7818 115.888 93.4584 114.21 93.4584 112.15V108.412H26.1683V112.15Z" fill="#506C7F"/>
<path d="M112.15 3.73834H108.412V37.3834H112.15C114.212 37.3834 115.888 35.7049 115.888 33.645V7.47668C115.888 5.41124 114.212 3.73834 112.15 3.73834Z" fill="#506C7F"/>
</svg>
