<svg width="30" height="34" viewBox="0 0 30 34" fill="none" xmlns="http://www.w3.org/2000/svg">
<path d="M26.7857 0.751465H3.21429C1.43973 0.751465 0 2.31666 0 4.24586V29.8715C0 31.8007 1.43973 33.3659 3.21429 33.3659H26.7857C28.5603 33.3659 30 31.8007 30 29.8715V4.24586C30 2.31666 28.5603 0.751465 26.7857 0.751465ZM23.5112 12.3121C23.5246 12.5159 23.5246 12.7271 23.5246 12.9309C23.5246 19.2427 19.1049 26.5154 11.029 26.5154C8.53795 26.5154 6.22768 25.7291 4.28571 24.3751C4.64062 24.4187 4.98214 24.4333 5.34375 24.4333C7.39955 24.4333 9.28795 23.6762 10.7946 22.3949C8.86607 22.3512 7.24554 20.9753 6.68973 19.0825C7.36607 19.1917 7.97545 19.1917 8.67188 18.9951C6.66295 18.5511 5.15625 16.6291 5.15625 14.3068V14.2486C5.73884 14.6053 6.42187 14.8237 7.13839 14.8528C6.536 14.4172 6.04218 13.8263 5.70098 13.1327C5.35979 12.4391 5.18185 11.6645 5.18304 10.8779C5.18304 9.98979 5.39732 9.17443 5.77902 8.46827C7.94196 11.3657 11.1897 13.2585 14.8326 13.4623C14.2098 10.2227 16.4397 7.59467 19.1183 7.59467C20.3839 7.59467 21.5223 8.16979 22.3259 9.10162C23.317 8.89779 24.2679 8.49738 25.1116 7.95138C24.7835 9.05794 24.0938 9.98979 23.183 10.5795C24.067 10.4775 24.9241 10.2082 25.7143 9.83691C25.1183 10.7906 24.3683 11.6351 23.5112 12.3121Z" fill="black"/>
</svg>
