<svg width="30" height="34" viewBox="0 0 30 34" fill="none" xmlns="http://www.w3.org/2000/svg">
<path d="M15 7.36171C10.1317 7.36171 6.17411 11.6642 6.16741 16.9567C6.16741 18.7695 6.63616 20.5385 7.52009 22.06L7.72768 22.424L6.83705 25.9621L10.1786 25.0084L10.5 25.2195C11.8527 26.0931 13.4062 26.5591 14.9933 26.5591H15C19.8616 26.5591 23.9263 22.2566 23.9263 16.964C23.9263 14.4015 22.9085 11.9918 21.2411 10.1791C19.567 8.35907 17.3571 7.36171 15 7.36171ZM20.1897 21.0772C19.9688 21.7543 18.9107 22.3658 18.4018 22.4459C17.558 22.5842 16.9018 22.5114 15.221 21.7251C12.5625 20.473 10.8214 17.561 10.6875 17.3717C10.5536 17.1824 9.60268 15.8065 9.60268 14.3869C9.60268 12.9673 10.2857 12.2684 10.5335 11.9772C10.7746 11.686 11.0625 11.6132 11.2433 11.6132C11.4174 11.6132 11.5982 11.6132 11.7522 11.6205C11.9129 11.6278 12.1339 11.555 12.3482 12.1155C12.5692 12.6907 13.0982 14.1103 13.1652 14.2559C13.2321 14.4015 13.279 14.5689 13.1853 14.7582C12.6763 15.8647 12.1339 15.8211 12.4085 16.3307C13.433 18.2453 14.4576 18.9078 16.0179 19.7595C16.2857 19.9051 16.4397 19.8833 16.5938 19.6867C16.7478 19.4975 17.2567 18.8423 17.4308 18.5583C17.6049 18.2671 17.7857 18.3181 18.0268 18.4127C18.2679 18.5074 19.5737 19.2063 19.8415 19.3519C20.1094 19.4975 20.2835 19.5703 20.3504 19.6867C20.4107 19.8251 20.4107 20.4075 20.1897 21.0772ZM26.7857 0.751465H3.21429C1.43973 0.751465 0 2.31666 0 4.24586V29.8715C0 31.8007 1.43973 33.3659 3.21429 33.3659H26.7857C28.5603 33.3659 30 31.8007 30 29.8715V4.24586C30 2.31666 28.5603 0.751465 26.7857 0.751465ZM14.9933 28.5028C13.2121 28.5028 11.4643 28.0151 9.91741 27.0978L4.28571 28.7067L5.79241 22.7225C4.86161 20.9753 4.37277 18.9879 4.37277 16.9495C4.37946 10.5867 9.14062 5.41067 14.9933 5.41067C17.8326 5.41067 20.4978 6.61187 22.5067 8.79587C24.5089 10.9799 25.7143 13.8773 25.7143 16.964C25.7143 23.3267 20.846 28.5028 14.9933 28.5028Z" fill="black"/>
</svg>
