<svg width="124" height="103" viewBox="0 0 124 103" fill="none" xmlns="http://www.w3.org/2000/svg">
<path d="M13.3662 62.2393H110.081C110.35 62.2393 110.552 62.0151 110.552 61.7687V2.47063C110.552 2.2017 110.35 2 110.081 2H13.3662C13.0973 2 12.8953 2.2017 12.8953 2.47063V61.7684C12.8953 62.0151 13.0973 62.2393 13.3662 62.2393Z" fill="white" stroke="white" stroke-width="2.81308"/>
<path d="M111.023 64.3916C110.933 64.1224 110.821 63.876 110.574 63.876H107.346H16.2806H13.0523C12.8056 63.876 12.6936 64.1227 12.6039 64.3916L2 101.427L61.8134 101.315L121.627 101.427L111.023 64.3916Z" fill="white" stroke="white" stroke-width="2.81308"/>
<path d="M13.3662 2H110.081C110.35 2 110.552 2.2017 110.552 2.47063V61.7684C110.552 62.0148 110.35 62.239 110.081 62.239H13.3662C13.0973 62.239 12.8953 62.0148 12.8953 61.7684V2.47063C12.8953 2.2017 13.0973 2 13.3662 2Z" fill="#141414"/>
<path d="M13.0523 63.8757C12.8056 63.8757 12.6936 64.1224 12.6039 64.3913L2 101.427L61.8134 101.315L121.627 101.427L111.023 64.3916C110.933 64.1224 110.821 63.876 110.574 63.876H107.346H16.2806H13.0523V63.8757Z" fill="#141414"/>
<path d="M20.9438 6.70797H102.503C102.728 6.70797 102.885 6.88744 102.885 7.11136V57.1054C102.885 57.3296 102.728 57.5091 102.503 57.5091H20.9438C20.7196 57.5091 20.5402 57.3296 20.5402 57.1054V7.11136C20.5402 6.88744 20.7196 6.70797 20.9438 6.70797Z" fill="#8ECDFC"/>
<path d="M49.8418 87.5503C49.7971 87.5503 49.7521 87.6175 49.7298 87.6847L47.1292 96.7642L61.8134 96.742L76.4752 96.7642L73.8745 87.6847C73.8745 87.6175 73.8298 87.5503 73.7848 87.5503H72.9777H50.6486H49.8418Z" fill="#4C4C4C"/>
<path d="M25.6293 6.70797L102.885 49.9987V7.11136C102.885 6.88744 102.728 6.70797 102.503 6.70797H25.6293Z" fill="#A8F1E5"/>
</svg>
