<svg width="120" height="120" viewBox="0 0 120 120" fill="none" xmlns="http://www.w3.org/2000/svg">
<path d="M49.047 112.449C72.8315 112.449 92.1126 88.8834 92.1126 59.8134C92.1126 30.7435 72.8315 7.17762 49.047 7.17762C25.2625 7.17762 5.98132 30.7435 5.98132 59.8134C5.98132 88.8834 25.2625 112.449 49.047 112.449Z" fill="white"/>
<path d="M53.8321 67.5892C56.8051 67.5892 59.2153 64.1078 59.2153 59.8134C59.2153 55.519 56.8051 52.0377 53.8321 52.0377C50.859 52.0377 48.4489 55.519 48.4489 59.8134C48.4489 64.1078 50.859 67.5892 53.8321 67.5892Z" fill="#ED4C5C"/>
<path d="M78.555 69.3835L79.1531 66.3929C79.1531 65.9941 79.3525 65.5953 79.3525 64.9972C79.3525 64.3991 79.5519 63.8009 79.5519 63.0034C79.5519 61.8072 79.7512 60.8103 79.7512 59.614C79.7512 58.4177 79.7512 57.4209 79.5519 56.2246C79.5519 55.6265 79.3525 54.8289 79.3525 54.2308C79.3525 53.8321 79.3525 53.4333 79.1531 53.0345L78.555 50.0439C74.9662 36.0874 64.1998 25.7198 51.2402 25.7198C35.4893 25.7198 22.7291 40.8725 22.7291 59.614C22.7291 78.3555 35.4893 93.5083 51.2402 93.5083C64.1998 93.7076 74.9662 83.5394 78.555 69.3835ZM53.0346 79.3524C44.262 79.3524 37.0843 70.5798 37.0843 59.8134C37.0843 49.047 44.262 40.2743 53.0346 40.2743C55.0284 40.2743 56.8228 40.6731 58.4178 41.4706C64.1997 44.6607 68.1873 51.6389 68.1873 59.8134C68.1873 67.9879 64.1998 74.9661 58.2184 78.1562C56.6234 78.9537 54.829 79.3524 53.0346 79.3524Z" fill="#428BC1"/>
<path d="M98.8915 59.8134V56.8227C97.4958 25.1216 75.963 0 49.4457 0C22.131 0 0 26.7167 0 59.8134C0 92.9102 22.131 119.627 49.4457 119.627C75.963 119.627 97.4958 94.5052 98.8915 62.8041V59.8134ZM51.0408 105.072C30.7042 105.072 13.9565 84.7357 13.9565 59.8134C13.9565 34.6918 30.7042 14.5546 51.0408 14.5546C59.2153 14.5546 66.7916 17.944 72.9723 23.3272C81.9444 31.7011 87.7263 45.0594 87.7263 59.8134C87.7263 74.5674 81.9444 87.7263 72.9723 96.2996C66.991 101.683 59.2153 105.072 51.0408 105.072Z" fill="#3E4347"/>
<path d="M62.0065 54.4302H98.094V64.9972H62.0065V54.4302Z" fill="white"/>
<path d="M86.7294 67.7885L119.627 84.935L115.041 61.6078H81.9443L86.7294 67.7885Z" fill="#F2B200"/>
<path d="M98.8915 73.9692L94.7046 71.7761L88.5239 60.8103H92.7108L98.8915 73.9692ZM111.452 80.5487L107.265 78.3556L101.085 60.8103H105.272L111.452 80.5487Z" fill="#C94747"/>
<path d="M86.7294 51.6389L119.627 34.293L115.041 57.8196H81.9443L86.7294 51.6389Z" fill="#F2B200"/>
<path d="M98.8915 45.2588L94.7046 47.452L88.5239 58.4177H92.7108L98.8915 45.2588ZM111.452 38.6793L107.265 40.8725L101.085 58.4177H105.272L111.452 38.6793Z" fill="#C94747"/>
<path d="M116.038 57.0221H54.4302C52.6358 57.0221 52.6358 62.4053 54.4302 62.4053H116.038C117.832 62.2059 117.832 57.0221 116.038 57.0221Z" fill="#754E27"/>
<path d="M114.842 58.2184H55.8258C54.0314 58.2184 54.0314 61.0097 55.8258 61.0097H114.842C116.437 61.0097 116.437 58.2184 114.842 58.2184Z" fill="#B28769"/>
</svg>
