<svg width="120" height="109" viewBox="0 0 120 109" fill="none" xmlns="http://www.w3.org/2000/svg">
<path d="M77.907 76.3219L106.094 86.2659C107.459 86.8266 108.412 88.1537 108.412 89.7238C108.412 91.7799 106.748 93.4622 104.673 93.4622H3.73834V71.0321V71.0135C3.75703 67.9106 6.24303 65.4246 9.34585 65.4246H13.0842L31.7759 56.0788H45.7946L52.3367 67.2938L53.2713 67.6116V67.6303L59.4209 69.7985L65.5891 71.9667L71.7387 74.135L77.907 76.3219Z" fill="#5D9CEC"/>
<path d="M11.215 18.6954C11.215 9.38883 18.7478 1.8729 28.0375 1.8729H115.888C116.917 1.8729 117.758 2.69534 117.758 3.72338V13.0879C117.758 14.116 116.917 14.9571 115.888 14.9571H14.9534C12.8786 14.9571 11.215 16.6206 11.215 18.6954Z" fill="#E6E9ED"/>
<path d="M87.8509 52.3218L80.3742 63.5555L73.8322 52.3218H87.8509Z" fill="#656D78"/>
<path d="M67.2901 41.1255L66.3555 40.789L60.2059 38.6208L54.0377 36.4525L47.8881 34.2656L41.7199 32.0974L13.5328 22.1347C12.1683 21.5739 11.215 20.2468 11.215 18.6954C11.215 16.6206 12.8786 14.9571 14.9534 14.9571H115.888V37.3871C115.888 40.4899 113.384 42.9946 110.281 42.9946H106.543L87.851 52.3218H73.8322L67.2901 41.1255Z" fill="#5D9CEC"/>
<path d="M39.2526 44.8638L45.7946 56.0788H31.7759L39.2526 44.8638Z" fill="#656D78"/>
<path d="M104.673 93.4622C106.748 93.4622 108.412 91.7799 108.412 89.7238C108.412 99.0136 100.879 106.546 91.5892 106.546H3.73831C2.71027 106.546 1.86914 105.705 1.86914 104.677V95.3313C1.86914 94.2846 2.71027 93.4622 3.73831 93.4622H104.673Z" fill="#E6E9ED"/>
<path d="M91.5893 108.419C90.5556 108.419 89.7201 107.584 89.7201 106.55C89.7201 105.516 90.5556 104.681 91.5893 104.681C99.8342 104.681 106.543 97.9725 106.543 89.7276C106.543 88.6939 107.378 87.8584 108.412 87.8584C109.445 87.8584 110.281 88.6939 110.281 89.7276C110.281 100.034 101.896 108.419 91.5893 108.419Z" fill="black"/>
<path d="M104.679 95.3313C103.645 95.3313 102.81 94.4958 102.81 93.4622C102.81 92.4285 103.645 91.593 104.679 91.593C105.707 91.593 106.543 90.7575 106.543 89.7276C106.543 88.6939 107.378 87.8584 108.412 87.8584C109.445 87.8584 110.281 88.6939 110.281 89.7276C110.281 92.8173 107.767 95.3313 104.679 95.3313Z" fill="black"/>
<path d="M108.412 91.593C107.378 91.593 106.543 90.7575 106.543 89.7238C106.543 88.9668 106.09 88.2902 105.389 88.0023C104.434 87.6079 103.98 86.5163 104.373 85.5612C104.767 84.6079 105.858 84.1593 106.814 84.5444C108.918 85.4135 110.281 87.4453 110.281 89.7238C110.281 90.7575 109.445 91.593 108.412 91.593Z" fill="black"/>
<path d="M91.5893 108.419H3.73654C2.70289 108.419 1.86737 107.584 1.86737 106.55C1.86737 105.516 2.70289 104.681 3.73654 104.681H91.5893C92.623 104.681 93.4585 105.516 93.4585 106.55C93.4585 107.584 92.623 108.419 91.5893 108.419Z" fill="black"/>
<path d="M3.73647 108.419C1.67478 108.419 0 106.743 0 104.685C0 103.688 0.785051 102.961 1.78132 102.913C2.70843 102.849 3.63553 103.69 3.73834 104.681C4.77012 104.681 5.60564 105.518 5.60564 106.55C5.60564 107.582 4.77012 108.419 3.73647 108.419Z" fill="black"/>
<path d="M1.8673 97.1986C0.833649 97.1986 0 96.3613 0 95.3276C0 93.2678 1.67478 91.593 3.73647 91.593C4.77012 91.593 5.60564 92.4285 5.60564 93.4622C5.60564 94.4958 4.77012 95.3313 3.73647 95.3313C3.73647 96.365 2.89908 97.1986 1.8673 97.1986Z" fill="black"/>
<path d="M1.86917 106.554C0.835519 106.554 0 105.718 0 104.685V95.3276C0 94.294 0.835519 93.4584 1.86917 93.4584C2.90282 93.4584 3.73834 94.294 3.73834 95.3276V104.685C3.73834 105.718 2.90282 106.554 1.86917 106.554Z" fill="black"/>
<path d="M104.679 95.3313H3.73654C2.70289 95.3313 1.86737 94.4958 1.86737 93.4622C1.86737 92.4285 2.70289 91.593 3.73654 91.593H104.679C105.713 91.593 106.548 92.4285 106.548 93.4622C106.548 94.4958 105.713 95.3313 104.679 95.3313Z" fill="black"/>
<path d="M106.096 88.1425C105.89 88.1425 105.679 88.107 105.473 88.036L51.7142 69.0564C50.7404 68.7106 50.2301 67.6433 50.574 66.6714C50.9198 65.6994 51.9815 65.1929 52.9591 65.5312L106.718 84.5107C107.692 84.8565 108.202 85.9238 107.858 86.8958C107.587 87.6621 106.866 88.1425 106.096 88.1425Z" fill="black"/>
<path d="M52.3385 69.163C51.6955 69.163 51.0694 68.8303 50.7236 68.2359L37.6394 45.8096C37.1198 44.918 37.4188 43.7741 38.3104 43.2544C39.202 42.7348 40.3478 43.0376 40.8656 43.9255L53.9498 66.3518C54.4694 67.2433 54.1703 68.3873 53.2787 68.9069C52.9834 69.0807 52.6582 69.163 52.3385 69.163Z" fill="black"/>
<path d="M13.0861 67.2975C12.4001 67.2975 11.7384 66.92 11.4113 66.2639C10.9496 65.3405 11.3234 64.2172 12.2468 63.7555L30.9385 54.4134C31.8619 53.9573 32.9852 54.3255 33.4469 55.2489C33.9086 56.1723 33.5348 57.2956 32.6114 57.7573L13.9197 67.0994C13.6524 67.234 13.3664 67.2975 13.0861 67.2975Z" fill="black"/>
<path d="M13.0842 67.2975H9.34585C8.3122 67.2975 7.47668 66.462 7.47668 65.4284C7.47668 64.3947 8.3122 63.5592 9.34585 63.5592H13.0842C14.1178 63.5592 14.9534 64.3947 14.9534 65.4284C14.9534 66.462 14.1178 67.2975 13.0842 67.2975Z" fill="black"/>
<path d="M3.73654 95.3314C2.70289 95.3314 1.86737 94.494 1.86737 93.4622L1.86924 71.0209C1.86924 69.9873 2.70663 69.1518 3.73841 69.1518C4.77206 69.1518 5.60758 69.9892 5.60758 71.0209L5.60571 93.4622C5.60571 94.4958 4.76832 95.3314 3.73654 95.3314Z" fill="black"/>
<path d="M3.73654 72.9013C2.70289 72.9013 1.86737 72.0658 1.86737 71.0322C1.86737 66.9088 5.22253 63.5555 9.34592 63.5555C10.3796 63.5555 11.2151 64.391 11.2151 65.4246C11.2151 66.4583 10.3796 67.2938 9.34592 67.2938C7.28235 67.2938 5.60571 68.9705 5.60571 71.0322C5.60571 72.0658 4.77019 72.9013 3.73654 72.9013Z" fill="black"/>
<path d="M45.7984 57.9554H31.7758C30.7422 57.9554 29.9067 57.1199 29.9067 56.0863C29.9067 55.0526 30.7422 54.2171 31.7758 54.2171H45.7984C46.832 54.2171 47.6675 55.0526 47.6675 56.0863C47.6675 57.1199 46.832 57.9554 45.7984 57.9554Z" fill="black"/>
<path d="M31.774 57.9555C31.4189 57.9555 31.0581 57.8527 30.7385 57.6414C29.8805 57.0676 29.6469 55.9087 30.2207 55.0489L37.6974 43.8301C38.2694 42.9703 39.4264 42.7386 40.2899 43.3124C41.1479 43.8862 41.3815 45.0451 40.8077 45.9049L33.331 57.1237C32.9722 57.6639 32.3778 57.9555 31.774 57.9555Z" fill="black"/>
<path d="M55.6863 77.8303C55.3554 77.8303 55.0227 77.7425 54.718 77.5593C53.8339 77.0228 53.5535 75.8733 54.09 74.9911L57.8283 68.8284C58.3611 67.9443 59.5106 67.6677 60.3947 68.1985C61.2788 68.7349 61.5592 69.8845 61.0227 70.7667L57.2844 76.9294C56.9349 77.5107 56.318 77.8303 55.6863 77.8303Z" fill="black"/>
<path d="M61.8452 80.006C61.5144 80.006 61.1817 79.9182 60.877 79.735C59.9948 79.1985 59.7125 78.0509 60.2471 77.1668L63.9854 71.0004C64.5219 70.1163 65.6714 69.8396 66.5537 70.3705C67.4359 70.9069 67.7182 72.0546 67.1836 72.9387L63.4453 79.1051C63.0938 79.6864 62.477 80.006 61.8452 80.006Z" fill="black"/>
<path d="M68.0041 82.178C67.6732 82.178 67.3405 82.0901 67.0358 81.907C66.1517 81.3705 65.8713 80.2228 66.4059 79.3387L70.1424 73.1761C70.6788 72.2901 71.8284 72.0135 72.7106 72.5462C73.5947 73.0826 73.8751 74.2303 73.3405 75.1144L69.6041 81.2771C69.2527 81.8584 68.6358 82.178 68.0041 82.178Z" fill="black"/>
<path d="M74.1611 84.3537C73.8303 84.3537 73.4976 84.2658 73.1929 84.0827C72.3088 83.5462 72.0284 82.3986 72.563 81.5144L76.2994 75.3518C76.8359 74.4677 77.9854 74.191 78.8677 74.7219C79.7518 75.2583 80.0322 76.406 79.4976 77.2901L75.7611 83.4528C75.4097 84.0341 74.7929 84.3537 74.1611 84.3537Z" fill="black"/>
<path d="M49.5292 75.6546C49.1983 75.6546 48.8656 75.5668 48.5609 75.3836C47.6768 74.8471 47.3964 73.6976 47.9329 72.8153L51.6712 66.6527C52.2058 65.7686 53.3535 65.4901 54.2376 66.0228C55.1217 66.5592 55.4021 67.7088 54.8656 68.591L51.1273 74.7537C50.7778 75.335 50.1609 75.6546 49.5292 75.6546Z" fill="black"/>
<path d="M11.215 20.5609C10.1813 20.5609 9.34583 19.7253 9.34583 18.6917C9.34583 8.38509 17.7309 0 28.0375 0C29.0712 0 29.9067 0.835519 29.9067 1.86917C29.9067 2.90282 29.0712 3.73834 28.0375 3.73834C19.7926 3.73834 13.0842 10.4468 13.0842 18.6917C13.0842 19.7253 12.2486 20.5609 11.215 20.5609Z" fill="black"/>
<path d="M11.215 20.5609C10.1813 20.5609 9.34583 19.7253 9.34583 18.6917C9.34583 15.6019 11.8599 13.0879 14.9477 13.0879C15.9814 13.0879 16.8169 13.9234 16.8169 14.9571C16.8169 15.9907 15.9814 16.8263 14.9477 16.8263C13.9197 16.8263 13.0842 17.6618 13.0842 18.6917C13.0842 19.7253 12.2486 20.5609 11.215 20.5609Z" fill="black"/>
<path d="M13.5253 24.0151C13.2879 24.0151 13.0468 23.9702 12.8131 23.8749C10.7084 23.0057 9.34583 20.9739 9.34583 18.6954C9.34583 17.6618 10.1813 16.8263 11.215 16.8263C12.2486 16.8263 13.0842 17.6618 13.0842 18.6954C13.0842 19.4524 13.5365 20.1291 14.2374 20.4169C15.1926 20.8113 15.6468 21.9029 15.2543 22.8581C14.9571 23.5777 14.2599 24.0151 13.5253 24.0151Z" fill="black"/>
<path d="M115.89 3.73834H28.0375C27.0039 3.73834 26.1683 2.90282 26.1683 1.86917C26.1683 0.835519 27.0039 0 28.0375 0H115.89C116.924 0 117.759 0.835519 117.759 1.86917C117.759 2.90282 116.924 3.73834 115.89 3.73834Z" fill="black"/>
<path d="M117.761 5.51031C116.804 5.51031 115.989 4.69909 115.888 3.73834C114.857 3.73834 114.021 2.90095 114.021 1.86917C114.021 0.837388 114.857 0 115.89 0C117.952 0 119.627 1.67664 119.627 3.7346C119.627 4.73087 118.842 5.45797 117.845 5.50657C117.817 5.50844 117.791 5.51031 117.761 5.51031Z" fill="black"/>
<path d="M115.89 16.8263C114.857 16.8263 114.021 15.9907 114.021 14.9571C114.021 13.9234 114.857 13.0879 115.89 13.0879C115.89 12.0543 116.728 11.2206 117.759 11.2206C118.793 11.2206 119.627 12.058 119.627 13.0917C119.627 15.1515 117.952 16.8263 115.89 16.8263Z" fill="black"/>
<path d="M117.758 14.9608C116.724 14.9608 115.888 14.1253 115.888 13.0917V3.7346C115.888 2.70095 116.724 1.86543 117.758 1.86543C118.791 1.86543 119.627 2.70095 119.627 3.7346V13.0917C119.627 14.1253 118.791 14.9608 117.758 14.9608Z" fill="black"/>
<path d="M115.89 16.8263H14.9478C13.9141 16.8263 13.0786 15.9907 13.0786 14.9571C13.0786 13.9234 13.9141 13.0879 14.9478 13.0879H115.89C116.924 13.0879 117.76 13.9234 117.76 14.9571C117.76 15.9907 116.924 16.8263 115.89 16.8263Z" fill="black"/>
<path d="M67.29 42.9946C67.0844 42.9946 66.8732 42.9591 66.6676 42.8881L12.9084 23.9085C11.9346 23.5627 11.4243 22.4955 11.7682 21.5235C12.114 20.5496 13.1776 20.0468 14.1533 20.3833L67.9125 39.3628C68.8863 39.7086 69.3966 40.7759 69.0527 41.7479C68.7816 42.5143 68.0601 42.9946 67.29 42.9946Z" fill="black"/>
<path d="M80.3762 65.4209C79.7332 65.4209 79.107 65.0882 78.7612 64.4938L65.677 42.0675C65.1574 41.1759 65.4565 40.032 66.3481 39.5123C67.2397 38.9909 68.3836 39.2937 68.9032 40.1834L81.9874 62.6097C82.507 63.5013 82.208 64.6452 81.3164 65.1648C81.0211 65.3387 80.6958 65.4209 80.3762 65.4209Z" fill="black"/>
<path d="M87.8528 54.2022C87.1668 54.2022 86.5051 53.8246 86.178 53.1685C85.7163 52.2451 86.0902 51.1218 87.0135 50.6601L105.705 41.318C106.629 40.8619 107.754 41.2301 108.214 42.1535C108.675 43.0769 108.301 44.2002 107.378 44.6619L88.6864 54.004C88.4191 54.1386 88.1332 54.2022 87.8528 54.2022Z" fill="black"/>
<path d="M110.281 44.8601H106.543C105.509 44.8601 104.673 44.0245 104.673 42.9909C104.673 41.9572 105.509 41.1217 106.543 41.1217H110.281C111.315 41.1217 112.15 41.9572 112.15 42.9909C112.15 44.0245 111.315 44.8601 110.281 44.8601Z" fill="black"/>
<path d="M115.888 39.2675C114.855 39.2675 114.019 38.4301 114.019 37.3983L114.021 14.9571C114.021 13.9234 114.859 13.0879 115.89 13.0879C116.924 13.0879 117.759 13.9253 117.759 14.9571L117.758 37.3983C117.758 38.432 116.92 39.2675 115.888 39.2675Z" fill="black"/>
<path d="M110.281 44.8638C109.247 44.8638 108.412 44.0283 108.412 42.9946C108.412 41.961 109.247 41.1255 110.281 41.1255C112.345 41.1255 114.021 39.4488 114.021 37.3871C114.021 36.3535 114.857 35.5179 115.89 35.5179C116.924 35.5179 117.76 36.3535 117.76 37.3871C117.76 41.5105 114.404 44.8638 110.281 44.8638Z" fill="black"/>
<path d="M87.8509 54.2022H73.8284C72.7947 54.2022 71.9592 53.3666 71.9592 52.333C71.9592 51.2993 72.7947 50.4638 73.8284 50.4638H87.8509C88.8845 50.4638 89.7201 51.2993 89.7201 52.333C89.7201 53.3666 88.8845 54.2022 87.8509 54.2022Z" fill="black"/>
<path d="M80.3724 65.4209C80.0173 65.4209 79.6565 65.3181 79.3369 65.1069C78.4789 64.533 78.2453 63.3742 78.8191 62.5143L86.2958 51.2956C86.8678 50.4376 88.0248 50.204 88.8883 50.7778C89.7463 51.3517 89.9799 52.5105 89.4061 53.3704L81.9294 64.5891C81.5705 65.1293 80.9761 65.4209 80.3724 65.4209Z" fill="black"/>
<path d="M60.1984 40.4899C59.8676 40.4899 59.5349 40.4021 59.2302 40.2189C58.3461 39.6825 58.0657 38.5329 58.6021 37.6507L62.3405 31.488C62.8732 30.602 64.0227 30.3273 64.9069 30.8581C65.791 31.3946 66.0713 32.5441 65.5349 33.4263L61.7966 39.589C61.447 40.1703 60.8302 40.4899 60.1984 40.4899Z" fill="black"/>
<path d="M54.0395 38.3179C53.7087 38.3179 53.376 38.2301 53.0713 38.0469C52.189 37.5105 51.9068 36.3628 52.4414 35.4787L56.1797 29.3123C56.7162 28.4282 57.8657 28.1515 58.748 28.6824C59.6302 29.2188 59.9124 30.3665 59.3779 31.2506L55.6395 37.417C55.2881 37.9983 54.6713 38.3179 54.0395 38.3179Z" fill="black"/>
<path d="M47.8824 36.1422C47.5516 36.1422 47.2189 36.0544 46.9142 35.8712C46.0301 35.3348 45.7497 34.1871 46.2843 33.303L50.0207 27.1403C50.5572 26.2543 51.7067 25.9796 52.589 26.5104C53.4731 27.0469 53.7535 28.1945 53.2189 29.0787L49.4824 35.2413C49.131 35.8226 48.5142 36.1422 47.8824 36.1422Z" fill="black"/>
<path d="M41.7255 33.9666C41.3947 33.9666 41.0619 33.8787 40.7573 33.6955C39.8731 33.1591 39.5928 32.0114 40.1274 31.1273L43.8638 24.9646C44.4003 24.0786 45.5498 23.8039 46.4321 24.3347C47.3162 24.8712 47.5966 26.0188 47.062 26.903L43.3255 33.0656C42.9741 33.6469 42.3573 33.9666 41.7255 33.9666Z" fill="black"/>
<path d="M66.3555 42.6656C66.0246 42.6656 65.6919 42.5778 65.3872 42.3946C64.5031 41.8582 64.2227 40.7086 64.7592 39.8264L68.4975 33.6637C69.0321 32.7796 70.1798 32.503 71.0639 33.0338C71.948 33.5703 72.2284 34.7198 71.6919 35.6021L67.9536 41.7647C67.6041 42.346 66.9872 42.6656 66.3555 42.6656Z" fill="black"/>
</svg>
