<svg width="124" height="130" viewBox="0 0 124 130" fill="none" xmlns="http://www.w3.org/2000/svg">
<path d="M41.2599 50.397C38.0217 43.0544 33.4429 30.5348 38.4136 27.5647C38.4136 27.5647 47.2618 15.0039 46.1274 3H52.4182L62.1327 23.5634L73.2703 3H79.5611C79.5611 3 77.8492 23.5634 85.8518 27.5647C85.8518 27.5647 91.895 34.5774 84.1605 50.397H41.2599Z" fill="#E88793"/>
<path d="M121.781 114.645C121.781 114.645 57.5333 143.768 3 114.645C3 114.645 22.1197 70.7335 42.0643 56.9764H83.8925C91.9363 65.8866 120.564 98.6808 121.781 114.645Z" fill="#E88793"/>
<path d="M81.8093 54.6664C81.8093 54.6664 82.5724 55.4914 83.8925 56.9558H42.0643C42.6625 56.5433 43.24 56.172 43.8381 55.8214C43.8381 55.8214 42.6831 53.5939 41.2599 50.397H84.14C83.4593 51.7582 82.6962 53.1814 81.8093 54.6664Z" fill="#F7C0CD"/>
<path d="M41.2599 50.397C38.0217 43.0544 33.4429 30.5348 38.4136 27.5647C38.4136 27.5647 47.2618 15.0039 46.1274 3H52.4182L62.1327 23.5634L73.2703 3H79.5611C79.5611 3 77.8492 23.5634 85.8518 27.5647C85.8518 27.5647 91.895 34.5774 84.1605 50.397H41.2599Z" stroke="#010101" stroke-width="4.12506" stroke-miterlimit="10"/>
<path d="M121.781 114.645C121.781 114.645 57.5333 143.768 3 114.645C3 114.645 22.1197 70.7335 42.0643 56.9764H83.8925C91.9363 65.8866 120.564 98.6808 121.781 114.645Z" stroke="#010101" stroke-width="4.12506" stroke-miterlimit="10"/>
<path d="M81.8093 54.6664C81.8093 54.6664 82.5724 55.4914 83.8925 56.9558H42.0643C42.6625 56.5433 43.24 56.172 43.8381 55.8214C43.8381 55.8214 42.6831 53.5939 41.2599 50.397H84.14C83.4593 51.7582 82.6962 53.1814 81.8093 54.6664Z" stroke="#010101" stroke-width="4.12506" stroke-miterlimit="10"/>
<path opacity="0.3" d="M82.2218 54.6664C83.0468 53.1814 83.7687 51.7376 84.3875 50.3763C91.6476 34.5567 85.9756 27.5441 85.9756 27.5441C78.468 23.5634 80.0768 3 80.0768 3H74.1779C72.2804 6.75381 70.3623 10.5076 68.4647 14.2614C70.4035 16.4477 72.7548 19.624 74.5698 23.8728C78.1174 32.1642 77.5811 39.7337 77.0449 43.4256C76.7767 45.0756 76.0961 47.7569 74.3223 50.6032C72.8167 52.9958 71.0841 54.5839 69.8673 55.5533C75.3536 61.1634 81.6031 68.5266 87.44 77.8286C96.1645 91.7301 100.805 104.868 103.383 114.645C103.383 114.645 80.9018 125.494 51.7376 127.309C63.989 127.907 80.6955 127.267 99.4646 121.905C108.333 119.368 116.068 116.254 122.627 113.098C112.025 93.7307 99.3202 74.8792 84.1606 56.9764C83.5212 56.1927 82.8818 55.4295 82.2218 54.6664Z" fill="black"/>
<path opacity="0.3" d="M63.3084 127.474C47.1175 126.896 29.7717 123.431 13.3127 114.645C13.3127 114.645 32.4323 70.7335 52.377 56.9764C52.9751 56.5639 53.5526 56.1927 54.1508 55.842C54.1508 55.842 52.9958 53.6145 51.5726 50.4176C48.3344 43.075 43.7556 30.5554 48.7263 27.5854C49.737 26.286 50.8095 24.5947 51.6964 22.5322C54.0476 17.0458 53.697 11.9514 53.2845 9.29071C52.9958 7.20755 52.707 5.1244 52.3976 3.02061H46.1069C47.2413 15.0039 38.393 27.5854 38.393 27.5854C33.4223 30.5554 38.0012 43.0956 41.2393 50.4176C42.6625 53.6145 43.8175 55.842 43.8175 55.842C43.2194 56.1927 42.6418 56.5639 42.0437 56.9764C22.1403 70.7335 3.02063 114.645 3.02063 114.645C23.0272 125.329 44.3331 128.154 63.3084 127.474Z" fill="white"/>
</svg>
